<?xml version="1.0" encoding="iso-8859-1"?>
<!-- Generator: Adobe Illustrator 19.0.0, SVG Export Plug-In . SVG Version: 6.00 Build 0)  -->
<svg version="1.1"  xmlns="http://www.w3.org/2000/svg" xmlns:xlink="http://www.w3.org/1999/xlink" x="0px" y="0px"
	 viewBox="0 0 512 512" style="enable-background:new 0 0 512 512;" xml:space="preserve">

<g id="Layer_1">

<circle style="fill:#88C5CC;" cx="256" cy="256" r="256"/>
	<path style="fill:#CCCCCC;" d="M105.86,346.256L244,258l-138.248-92.168c-3.484,2.94-5.752,7.28-5.752,12.168v156
		C100,338.936,102.312,343.316,105.86,346.256z"/>
	<path style="fill:#CCCCCC;" d="M406.252,165.832L268,258l138.14,88.256c3.548-2.94,5.86-7.32,5.86-12.256V178
		C412,173.112,409.736,168.772,406.252,165.832z"/>

<path style="fill:#E6E6E6;" d="M256,242L105.652,346.084c2.8,2.404,6.392,3.916,10.348,3.916h280c3.956,0,7.548-1.508,10.348-3.916
	L256,242z"/>
<path style="fill:#F5F5F5;" d="M256,270l150.348-104.084c-2.8-2.404-6.392-3.916-10.348-3.916H116
	c-3.956,0-7.548,1.508-10.348,3.916L256,270z"/>
<path style="fill:#88C5CC;" d="M408,416c-37.496,0-68-30.504-68-68s30.504-68,68-68s68,30.504,68,68S445.496,416,408,416z"/>
<circle style="fill:#E16B5A;" cx="408" cy="348" r="52"/>

	<path style="fill:#F5F5F5;" d="M408,376c-2.212,0-4-1.792-4-4v-52c0-2.208,1.788-4,4-4s4,1.792,4,4v52
		C412,374.208,410.212,376,408,376z"/>
	<path style="fill:#F5F5F5;" d="M408,376c-1.024,0-2.048-0.392-2.828-1.172l-20-20c-1.564-1.564-1.564-4.092,0-5.656
		s4.092-1.564,5.656,0L408,366.344l17.172-17.172c1.564-1.564,4.092-1.564,5.656,0s1.564,4.092,0,5.656l-20,20
		C410.048,375.608,409.024,376,408,376z"/>


</g>
<g id="Layer_2">

<polygon style="fill:#FEE191;" points="512,128.819 512,512 384,466.489 349.867,274.898 384,83.308 "/>
<polygon style="fill:#FFD24D;" points="384,83.308 384,466.489 256,512 233.244,320.41 256,128.819 "/>
<polygon style="fill:#FEE191;" points="256,128.819 256,512 128,466.489 93.867,274.898 128,83.308 "/>
<polygon style="fill:#FFD24D;" points="128,83.308 128,466.489 0,512 0,128.819 "/>
<path style="fill:#F14742;" d="M435.61,115.61c0,92.573-104.507,178.309-104.507,178.309c-6.106,5.01-16.1,5.01-22.206,0
	c0,0-104.507-85.736-104.507-178.309C204.389,51.761,256.15,0,320,0S435.61,51.761,435.61,115.61z"/>
<path style="fill:#FFFFFF;" d="M320,173.774c-32.072,0-58.164-26.093-58.164-58.164S287.928,57.446,320,57.446
	s58.164,26.093,58.164,58.164S352.072,173.774,320,173.774z"/>


</g>
</svg>
