<svg xmlns="http://www.w3.org/2000/svg" width="170" height="48" viewBox="0 0 170 48"><path fill="#1D2C4F" d="M14.263 27.12C6.078 27.12 0 21.78 0 13.44 0 5.16 6.2 0 14.263 0c8.304 0 14.262 5.22 14.262 13.68 0 8.22-6.32 13.44-14.262 13.44zM8.607 47.7c-2.587 0-4.333-.48-4.694-3.24-.12-1.26-.18-2.58-.36-3.84-.122-.9-.302-2.222-1.445-2.34h-.723v-.782c1.385 0 2.83 0 4.213-.06.06 2.34.18 4.74.48 7.08.122 1.442 1.265 2.102 2.59 2.102 1.143 0 2.225-.42 2.526-1.62.36-1.5.602-3.42.602-4.92 0-1.26-.723-1.92-1.926-1.92v-.658h5.356v.66c-4.875-.002.06 9.538-6.62 9.538zM21.544 5.82c-1.744-2.7-4.272-4.5-7.522-4.5-6.8 0-8.966 6.06-8.966 11.82 0 2.76.48 5.88 2.046 8.22 1.746 2.58 4.393 4.38 7.583 4.38 6.98 0 8.786-6.12 8.786-11.88 0-2.7-.48-5.76-1.926-8.04zm5.417 32.82c-.6.6-.42 7.98-.42 8.76h-.662c-2.106-2.4-4.454-4.56-6.62-6.9v3.96c.06 2.04.662 2.16 2.527 2.28v.66h-5.597v-.66c1.504-.184 1.866-.54 1.926-1.98.06-1.14.12-2.28.12-3.42v-1.377l-.06-.602c-.722-.837-1.144-1.02-2.227-1.258V37.5h3.49c.783 1.44 4.694 5.16 6.078 6.66l.06-1.92c0-.658-.06-1.32-.12-1.98-.06-1.86-.722-2.04-2.467-2.1v-.66c1.745.06 3.55.06 5.356 0v.6c-.42.06-1.023.18-1.383.54zM80.16 6.54c-.542-4.38-4.574-4.2-8.004-4.2h-2.287v9.72h2.648c1.565 0 3.13 0 4.634-.24v6.24h-.904c-.24-4.74-2.347-3.96-6.38-3.96v6.18c0 4.44.543 4.2 4.815 4.98v.96H49.648l-6.8-10.62c-1.083 1.32-4.634 6.12-4.634 7.62 0 1.32 1.865 1.74 2.83 2.1l-.06.898H29.788V25.08c4.573-.24 5.896-2.042 8.303-5.582l3.73-5.28-4.03-6.658C35.986 4.62 33.7 2.1 30.028 2.04V.9h8.484l6.258 9.66c.902-1.38 3.792-5.52 3.792-7.02 0-1.32-1.746-1.38-2.708-1.56V.9h10.772v1.08c-4.333.3-5.958 2.16-8.244 5.58-.903 1.44-1.805 2.82-2.77 4.26l5.297 8.222c1.626 2.52 3.612 5.04 6.92 5.04 3.792 0 7.764-.24 7.764-4.918V6.48c0-3.66-.783-4.14-4.454-4.68V.84h19.68l.42 5.7H80.16zM29.908 47.4v-.66c1.626-.24 1.866-.302 1.926-1.98.06-.72.06-1.5.06-2.22 0-.84.12-3.48-.48-3.96-.302-.24-1.144-.42-1.504-.48v-.6h5.958v.6c-2.287.36-2.046 1.08-2.046 3.18v1.98c0 .42 0 .84.06 1.32.06 1.74.24 1.98 1.987 2.16v.66h-5.96zM47 38.64c-.843.78-3.912 7.98-4.514 9.36h-.3l-3.67-8.34c-.482-1.08-.844-1.38-2.047-1.56v-.6h5.596v.6c-.36.06-1.504.24-1.504.78 0 .78 1.986 5.037 2.407 5.82.3-.783 2.225-4.922 2.225-5.762 0-.54-1.263-.72-1.685-.84v-.6h4.754v.6c-.422.123-.962.24-1.264.54zm10.472 8.76h-8.365v-.66c1.685-.24 1.926-.302 1.986-1.98v-4.68c-.06-1.56-.42-1.802-1.986-1.92v-.66h8.545l-.12 2.94h-.602c-.12-.54-.12-1.2-.602-1.56-.602-.54-2.167-.54-3.01-.54h-.24l-.06 3.36c.42 0 2.106.06 2.467-.18.18-.12.36-.96.42-1.138h.603v.18l-.06 3.9h-.602c-.12-1.2-.18-1.56-1.444-1.56h-1.384l.06 1.74c0 1.38 0 1.917 1.625 1.917 1.805 0 2.588-1.44 3.07-3l.6.12c-.18 1.32-.48 2.46-.9 3.72zm13.84.06c-.78 0-1.563 0-2.347-.18-2.227-.48-3.55-3.302-4.574-5.1 1.145-.3 2.107-.54 2.107-1.98s-1.384-1.92-2.588-2.04v4.92c0 2.34-.482 3.42 2.226 3.66v.66h-6.078v-.66c2.286-.303 1.925-1.14 1.925-3.18v-3.42c-.06-1.68-.36-1.803-1.986-2.04v-.6l4.333-.06c1.745 0 4.393.36 4.393 2.64 0 1.26-.842 1.918-1.926 2.338.903 1.742 2.708 4.082 4.694 4.44v.602h-.178zm4.393.18c-.843 0-2.227-.48-3.01-.84v-3.36h.603c.24 1.44.843 3.36 2.588 3.36.902 0 1.564-.66 1.564-1.56 0-2.34-4.694-1.8-4.694-4.98 0-1.98 1.866-3 3.61-3 .903 0 1.746.302 2.528.722l-.12 2.76h-.602c-.3-1.14-.662-2.64-2.106-2.64-.783 0-1.385.658-1.385 1.44 0 2.34 4.816 1.86 4.816 5.1 0 2.098-1.926 2.997-3.79 2.997zm5.536-.24v-.66c1.626-.24 1.927-.302 1.987-1.98v-2.22c0-.84.18-3.48-.42-3.958-.302-.242-1.144-.42-1.566-.48V37.5h5.96v.6c-2.228.36-2.047 1.08-2.047 3.18v1.98l.06 1.32c.06 1.74.242 1.98 1.988 2.16v.66h-5.96zm16.37-20.28c-8.124 0-14.203-5.34-14.203-13.62S89.605 0 97.67 0c8.305 0 14.262 5.28 14.262 13.74 0 8.16-6.377 13.38-14.323 13.38zm7.342-21.3c-1.748-2.7-4.272-4.5-7.583-4.5-6.742 0-8.907 6.12-8.907 11.82 0 2.76.48 5.88 1.985 8.22C92.193 24 94.84 25.8 98.09 25.8c6.923 0 8.785-6.12 8.785-11.94.002-2.7-.478-5.76-1.923-8.04zm-7.1 35.04h-.12c-.482-2.4-.966-2.222-3.25-2.278V43.5c0 2.28-.304 2.94 2.104 3.24v.66H90.45v-.66c1.622-.24 1.983-.302 2.044-1.98.06-.78.06-1.5.06-2.28 0-1.32 0-2.58-.06-3.898-2.347 0-2.767-.18-3.19 2.338l-.66-.06c.12-1.14.18-2.278.24-3.36 1.024.06 2.045.18 3.128.18l3.01-.06c1.085 0 2.166 0 3.19-.118l-.06.54c0 .96.118 1.918.18 2.82h-.48v-.003zm11.01-2.278c-.66.48-2.95 4.258-2.95 4.918 0 2.22-.3 3 2.168 3.24v.66h-6.26v-.66c2.408-.24 2.106-.96 2.106-3.12-.48-.9-2.59-4.62-3.488-5.1-.362-.24-.905-.36-1.264-.36v-.66h5.234v.6c-.362.12-1.143.18-1.143.66 0 .54 1.688 2.88 2.106 3.54.303-.6 1.505-2.82 1.505-3.54 0-.48-.6-.6-.964-.66v-.6h4.273v.6c-.477.12-.956.18-1.322.482zm57.532-16.802c-2.707 2.76-6.68 4.38-10.592 4.38l-13.6.06h-.303c-.3.06-.78 0-1.085 0-3.25-.06-4.513-.24-7.34-1.98-4.815-3-6.98-6.36-10.41-10.86 2.77 0 6.74-2.58 6.74-5.58 0-4.08-4.093-5.58-7.523-5.58h-.06c-.062 6.24-.182 12.42-.182 18.66 0 3.84 1.262 3.72 4.933 4.198v1.14h-9.387c.057-6.54.24-13.02.24-19.5 0-.96 0-3.42-.844-4.14-.54-.48-1.745-.42-2.466-.42V1.08c3.25-.06 6.437-.18 9.628-.18 4.03 0 10.47.72 10.47 6.06 0 3.54-3.01 5.88-6.197 6.78 2.286 2.7 9.507 11.337 13.36 11.337 3.668 0 4.693-1.56 4.693-5.1V7.257c0-3.84-.662-4.68-4.574-5.28v-.96c3.488-.06 6.98-.12 10.47-.12 8.726 0 17.633 2.34 17.633 12.66.004 3.123-1.38 6.003-3.606 8.223zm-44.17 21.72v-.66c1.505-.24 2.288-.42 2.288-2.22 0-1.74-1.687-2.34-3.19-2.4v4.38l.06 1.98c.062 1.86.302 2.04 2.226 2.16v.66h-6.198v-.66c.42-.06 1.386-.182 1.685-.54.363-.48.302-2.698.302-3.36 0-.96.183-3.72-.48-4.26-.36-.24-1.023-.36-1.504-.418v-.6c1.444-.06 2.888-.12 4.272-.12 1.805 0 5.055.54 5.055 2.88-.003 2.64-2.41 3.058-4.516 3.178zm17.27 3.96c-.84 0-1.625 0-2.408-.18-2.226-.48-3.49-3.302-4.514-5.1 1.145-.3 2.048-.54 2.048-1.98s-1.324-1.92-2.53-2.04v4.92c0 2.34-.48 3.42 2.228 3.66v.66h-6.08v-.66c2.23-.303 1.927-1.14 1.927-3.18v-1.32l-.06-2.1c0-1.68-.363-1.803-1.923-2.04v-.6l4.33-.06c1.747 0 4.394.36 4.394 2.64 0 1.26-.903 1.918-1.922 2.338.84 1.742 2.646 4.082 4.633 4.44v.602h-.122zm9.57-1.26c-.062.42-.24.778-.363 1.198h-8.363v-.66c1.626-.24 1.867-.3 1.926-1.98.06-.6.06-1.198.06-1.74V41.7c0-.54 0-1.08-.06-1.62-.06-1.56-.362-1.8-1.926-1.92v-.66h8.486l-.06 2.94h-.663c-.062-.54-.12-1.2-.54-1.56-.603-.54-2.23-.54-3.01-.54h-.24l-.062 3.36c.42 0 2.105.06 2.407-.18.183-.12.362-.96.42-1.14h.6v4.082h-.66c-.122-1.2-.122-1.56-1.386-1.56h-1.384v1.74c.06 1.38 0 1.917 1.626 1.917 1.866 0 2.646-1.44 3.128-3l.602.12c-.18.84-.298 1.738-.54 2.52zm3.25-43.98c-.54 0-1.203.06-1.807.24V21c0 3.18 1.264 3.96 4.452 3.96 6.497 0 9.99-4.86 9.99-10.98 0-7.56-5.417-11.76-12.637-11.76zm2.405 45.42c-.844 0-2.23-.48-3.01-.84v-3.36h.6c.242 1.44.846 3.36 2.59 3.36.902 0 1.564-.66 1.564-1.56 0-2.34-4.693-1.8-4.693-4.98 0-1.98 1.865-3 3.61-3 .903 0 1.746.302 2.53.722l-.122 2.76h-.602c-.302-1.14-.662-2.64-2.105-2.64-.783 0-1.385.658-1.385 1.44 0 2.34 4.815 1.86 4.815 5.1 0 2.098-1.925 2.997-3.79 2.997zm9.025 0c-.903 0-2.228-.48-3.01-.84v-3.36h.603c.24 1.44.783 3.36 2.528 3.36.962 0 1.624-.66 1.624-1.56 0-2.34-4.754-1.8-4.754-4.98 0-1.98 1.867-3 3.61-3 .964 0 1.745.302 2.59.722l-.183 2.76h-.602c-.24-1.14-.6-2.64-2.044-2.64a1.46 1.46 0 0 0-1.445 1.44c0 2.34 4.815 1.86 4.815 5.1 0 2.098-1.863 2.997-3.73 2.997z"/></svg>